<svg width="24" height="24" viewBox="0 0 24 24" fill="none" xmlns="http://www.w3.org/2000/svg">
<g clip-path="url(#clip0_8044_54)">
<path d="M15 15C16.6569 15 18 13.6569 18 12C18 10.3431 16.6569 9 15 9C13.3431 9 12 10.3431 12 12C12 13.6569 13.3431 15 15 15Z" stroke="#4B4B4B" stroke-width="1.25" stroke-linecap="round" stroke-linejoin="round"/>
<path d="M15 3H9C7.34315 3 6 4.34315 6 6C6 7.65685 7.34315 9 9 9H15C16.6569 9 18 7.65685 18 6C18 4.34315 16.6569 3 15 3Z" stroke="#4B4B4B" stroke-width="1.25" stroke-linecap="round" stroke-linejoin="round"/>
<path d="M9 15C8.20435 15 7.44129 14.6839 6.87868 14.1213C6.31607 13.5587 6 12.7956 6 12C6 11.2044 6.31607 10.4413 6.87868 9.87868C7.44129 9.31607 11.2044 9.6 12 9.6L12 15H9ZM9 15C8.40666 15 7.82664 15.1759 7.33329 15.5056C6.83994 15.8352 6.45543 16.3038 6.22836 16.8519C6.0013 17.4001 5.94189 18.0033 6.05765 18.5853C6.1734 19.1672 6.45912 19.7018 6.87868 20.1213C7.29824 20.5409 7.83279 20.8266 8.41473 20.9424C8.99667 21.0581 9.59987 20.9987 10.1481 20.7716C10.6962 20.5446 11.1648 20.1601 11.4944 19.6667C11.8241 19.1734 12 18.5933 12 18V3" stroke="#4B4B4B" stroke-width="1.25" stroke-linecap="round" stroke-linejoin="round"/>
</g>
<defs>
<clipPath id="clip0_8044_54">
<rect width="24" height="24" fill="white"/>
</clipPath>
</defs>
</svg>
